<svg width="64" height="73" viewBox="0 0 64 73" fill="none" xmlns="http://www.w3.org/2000/svg">
<path d="M51.9302 12.0071C56.2382 19.1111 55.3402 29.9331 50.1502 36.3271C44.4042 43.9151 34.9302 47.2071 25.5502 44.6231C17.0422 42.3931 10.1022 34.2731 9.32417 25.4931C8.26417 16.1831 12.5922 7.69711 20.4642 3.04711C26.5302 -0.682886 35.8882 -1.10689 42.2002 2.43311C46.0362 4.29711 49.8942 8.12111 51.9122 12.0031L51.9302 12.0071ZM32.4362 1.05511C32.5162 1.90511 32.5162 3.09511 32.4362 4.06511C32.4602 3.91111 32.6022 3.91111 32.6962 3.85311C32.9922 3.95911 32.9922 4.32511 32.9082 4.57311H32.8482C34.3682 4.46711 35.8342 4.84511 37.2382 5.26911C38.7022 5.45711 39.9782 7.21711 41.4182 6.28311C41.8182 6.73111 42.5182 6.30711 42.7282 7.00311C43.2822 7.10911 43.5782 7.66311 43.9562 8.01711C43.9082 8.52511 44.3802 8.76111 44.5462 9.13711V9.07711C45.0302 8.20311 45.7962 7.44911 46.6462 7.00111C43.6626 4.15287 39.9076 2.24444 35.8482 1.51311C34.7482 1.28911 33.5242 1.35911 32.4382 1.05311L32.4362 1.05511ZM17.0582 7.06111L19.5582 9.45711C22.6629 6.40511 26.8064 4.63915 31.1582 4.51311C30.9922 3.45311 31.0522 2.24711 31.1102 1.16111C25.7302 1.46711 21.0462 3.49711 17.0582 7.06111ZM48.3662 1.86711L49.9942 3.49511C51.6462 6.04311 53.9602 8.56911 56.2482 10.1751C55.7642 9.16111 55.6582 7.96911 55.1482 6.95511C54.1342 4.11111 50.9682 2.73111 48.3622 1.86911L48.3662 1.86711ZM15.1262 2.18711C13.1062 2.98711 10.9262 3.65111 9.42617 5.53911C8.25817 7.05911 7.90617 8.89111 7.30217 10.6251L9.08217 9.10511C11.7962 7.21711 12.5022 4.13711 15.1222 2.18911L15.1262 2.18711ZM35.0462 2.88311L33.5262 3.56711C33.3602 3.64711 32.8302 3.37911 32.9122 3.82711C33.2082 4.01511 33.5022 4.22711 33.8682 4.27511C34.8242 3.85111 35.9682 4.54711 36.7682 3.66111C36.5322 3.01111 35.6822 2.98911 35.0482 2.88111L35.0462 2.88311ZM54.5402 4.83111C56.7942 6.31711 56.6402 9.05511 57.4402 11.2751C57.6522 12.2071 58.2202 13.0551 58.2902 13.9891C57.0862 10.4851 53.0042 10.1091 51.5302 6.80311L51.9902 8.73911C53.1342 12.4911 57.6102 13.3991 59.3062 16.7991C58.7742 14.3451 59.7062 11.7711 58.9662 9.35311C58.3522 7.27711 56.6422 5.44511 54.5402 4.83111ZM5.30417 8.18111C3.58417 10.7071 4.98417 14.2011 4.50417 17.1971C5.11817 15.9691 6.31017 14.8011 7.34817 13.9291C9.74417 12.3831 11.8922 9.91711 11.9742 7.16911C10.6982 10.4351 6.49817 10.8611 5.45817 14.3411H5.35217C6.89817 11.4491 6.02417 7.38111 8.97217 5.24111C7.42617 5.67711 6.11617 6.82111 5.30217 8.18111H5.30417ZM32.3842 5.68111C32.5502 6.74111 32.4902 8.01711 32.4322 9.05711C35.1222 9.10511 37.6722 9.93112 39.7722 11.4971C39.6473 11.404 39.546 11.283 39.4762 11.1437C39.4064 11.0045 39.3701 10.8509 39.3702 10.6951H39.4502C39.4982 10.3151 38.9182 10.1411 39.1102 9.76311C39.6182 9.81111 39.9962 10.5071 40.2782 10.8831C41.7422 10.8591 40.8922 12.6031 41.9982 13.1231C42.2582 13.2531 41.9182 13.7831 42.3182 13.7371C42.6582 14.0091 43.0862 14.3171 43.0142 14.7511C43.1442 15.5191 43.7582 14.5151 44.1002 15.0111C44.3962 15.2471 43.8882 15.3911 43.9462 15.6711C44.1342 15.7511 44.3122 15.4831 44.4542 15.7191C44.5142 15.9791 44.3242 16.0851 44.1942 16.2271C44.0642 16.6751 44.5942 16.4151 44.7482 16.6271C44.9842 17.1351 45.1722 17.9011 44.7962 18.4671C45.3282 19.0471 44.7162 19.6351 44.6082 20.1871C44.2282 20.5531 44.1602 21.3911 43.4402 21.2011C43.2742 21.4971 43.5462 21.8411 43.3802 22.0751L44.6542 22.1351C43.9342 21.1211 44.8662 20.1411 45.1622 19.2351C45.3162 19.1751 45.5022 18.8551 45.6342 19.1751L45.4802 20.4031C45.8002 20.8871 45.6682 21.5711 45.7762 22.1371L49.0442 22.0771C48.8082 19.9171 48.3602 17.8411 47.4502 15.9651C47.2142 16.0451 46.9422 16.2251 46.6822 16.0711C46.3162 15.5871 46.0222 14.9851 45.5142 14.5851C45.0902 14.5851 44.7942 14.2451 44.4542 14.0311C43.7102 14.0551 43.9822 12.9711 43.2622 13.1231C42.8822 12.9351 42.6022 12.7431 42.4942 12.2971C42.4702 11.7891 42.4342 11.1531 41.9402 10.7771C41.6682 10.6231 41.4082 10.8251 41.2202 10.9891C40.8202 11.2491 40.6542 10.8011 40.6662 10.4811C40.2182 10.1411 40.6902 9.76111 40.4542 9.36111C39.8142 8.85311 40.1142 7.89711 39.2502 7.47311C37.8462 6.80111 36.3702 6.37311 34.8102 6.05711C34.0202 5.91711 33.1462 5.89111 32.3802 5.67711L32.3842 5.68111ZM42.1082 5.68111C41.9422 5.72911 42.0022 6.00111 42.0602 6.10511C42.6142 6.15311 42.6142 7.10511 43.2642 6.69511L43.1102 6.03511C42.9442 5.62111 42.3802 5.83511 42.1082 5.68111ZM20.2782 10.3271C21.1282 10.9171 21.9542 11.8471 22.6502 12.6171C24.8902 10.4331 27.9142 9.10111 31.1582 9.05311C31.0982 7.99311 31.0982 6.84711 31.1582 5.78511C27.0522 6.10511 23.3582 7.58911 20.2782 10.3271ZM47.4582 7.77911L45.2282 10.1751L44.8622 10.2231C45.1582 10.2231 45.0742 10.5631 45.2622 10.6951C46.1942 11.3551 46.6222 12.2891 47.4102 12.9851C47.7062 13.7051 48.4702 14.1771 48.4702 15.0611C49.5702 17.2091 50.0862 19.7211 50.2042 22.1891C51.3366 22.0682 52.4754 22.0168 53.6142 22.0351L53.5082 21.9291C53.3082 16.4191 51.0542 11.7291 47.4542 7.77911H47.4582ZM16.3982 8.12711L16.2922 7.80711C12.6722 11.7471 10.6282 16.7271 10.3562 22.1671L13.8162 22.2151C13.6862 21.1151 13.9822 20.0551 14.1122 18.9691C14.8562 15.7691 16.2362 12.7391 18.6922 10.3551L16.3982 8.12711ZM59.4122 8.92711C60.9822 11.2171 60.0842 14.4371 59.9922 17.1171C60.0522 18.4171 60.2642 19.7011 60.1802 20.9971C59.9922 20.4891 59.9442 19.9371 59.8142 19.4031C59.1742 16.5031 55.7662 15.0731 54.3862 12.6431C54.5982 13.4691 54.7522 14.2951 55.0462 15.0831C56.2382 18.5171 59.8022 20.8291 60.2862 24.5591C60.6062 20.9951 63.0862 18.1511 62.1742 14.2691C61.6782 12.3211 60.8742 10.4091 59.4142 8.92311L59.4122 8.92711ZM4.07817 9.42111C2.85017 10.8871 2.02417 12.6431 1.59817 14.5271C0.772174 18.4331 3.11817 21.4431 3.63817 25.0071C4.32217 20.5351 9.03017 17.7151 9.27817 13.0411C7.87817 15.5671 4.54617 17.0291 3.93217 20.0151C3.93217 20.4991 3.77817 20.9711 3.67217 21.4311L3.56617 21.3251L3.73217 19.3891C4.31217 15.9431 2.29217 12.3791 4.07217 9.44111L4.07817 9.42111ZM31.2322 10.1771L31.1262 10.2571C28.2002 10.4231 25.7562 11.7211 23.4902 13.4771C24.3642 14.0431 25.0602 14.9411 25.8862 15.7071C27.3022 14.3471 29.1902 13.5471 31.1722 13.4771C31.1022 12.5091 31.0522 11.2111 31.2322 10.1731V10.1771ZM32.4362 10.2251C32.6022 11.2171 32.5662 12.3851 32.4962 13.4251C34.4662 13.5791 36.5682 14.3811 37.9842 15.6651C38.7282 14.8971 39.5542 13.8851 40.3802 13.4251C38.0562 11.5851 35.4482 10.4391 32.4402 10.2251H32.4362ZM19.4202 11.0251V11.2371C16.7302 14.3171 15.2202 18.0231 14.9482 22.1771C16.0482 22.2011 17.2602 22.1291 18.3002 22.2251L18.1942 22.0711C18.4062 18.7791 19.5942 15.7911 21.8142 13.4211C20.9182 12.7011 20.0942 11.8751 19.4182 11.0251H19.4202ZM41.0862 14.1851C40.0862 15.3291 38.8322 16.5451 37.8862 17.6451C37.9462 17.7991 38.1222 17.9651 38.1462 17.9051C38.4062 17.5851 38.2062 16.7851 38.9142 16.9491C39.6102 17.1851 40.2242 17.1151 40.9902 17.2091C41.4142 17.4451 41.4742 17.9531 41.8642 18.1651C42.0302 18.3531 41.8042 18.5311 41.7102 18.6731C41.794 18.7482 41.8655 18.8359 41.9222 18.9331C42.1342 18.7451 42.4302 18.4851 42.8302 18.5931C43.2302 18.6171 43.3382 19.1831 43.7042 19.2531C43.8702 19.4651 43.5982 19.6771 43.4442 19.7611C43.5242 20.1611 43.0642 20.2931 43.2322 20.6691C43.4442 20.7171 43.6562 20.6091 43.7402 20.4571C44.5402 19.8671 43.9062 19.0971 43.7882 18.3811C43.4682 17.7211 42.7962 17.6011 42.2682 17.1071C42.2922 16.8951 42.4222 16.6591 42.5882 16.5531C42.5522 15.6091 41.5962 14.9731 41.0882 14.1931L41.0862 14.1851ZM22.6542 14.2911C21.9342 15.1771 21.2382 16.1551 20.7182 17.1911C19.8922 18.7111 19.6582 20.4831 19.3182 22.2191L20.7182 22.1711C20.4822 21.8991 20.5302 21.5111 20.5302 21.1571C20.8502 20.4851 20.9782 19.2691 21.9942 19.3271C22.4782 19.2211 21.9702 18.8431 22.3602 18.6431C23.0802 18.5371 23.2682 17.8631 23.8802 17.5431C24.4602 17.4831 24.5762 16.6691 25.1542 16.6111C24.1862 15.9391 23.5262 15.0911 22.6542 14.2871V14.2911ZM32.4942 14.6911L32.5742 16.9811L33.4482 17.3011C33.7082 16.8531 34.1682 16.7471 34.4622 16.3691C34.7342 16.2391 34.7342 16.5811 34.8622 16.6891C35.0282 17.7291 33.8622 18.1991 33.2462 18.6251H33.5062C34.1662 17.9411 34.5462 19.4751 35.2262 18.7791C35.3562 17.9051 36.5862 18.0111 36.8542 17.1511C36.6422 17.3631 36.5342 17.1271 36.3462 17.0711C36.4062 16.7751 36.8182 16.5871 37.0062 16.3871C35.6062 15.5271 34.1262 14.9591 32.4862 14.6991L32.4942 14.6911ZM31.1262 14.7611C29.3462 15.0211 27.6662 15.6691 26.3942 17.0511C26.8182 17.1311 27.2442 17.3111 27.5622 17.6051C27.6682 17.8171 27.3742 17.8411 27.3502 17.9711C27.6222 18.3711 27.6462 17.8911 27.9302 17.8171C28.1902 18.0771 28.4142 18.2651 28.7802 18.0771C28.9682 18.3971 29.2642 18.1011 29.5002 18.1251C29.5802 17.8651 29.9482 17.6531 29.7962 17.3571C29.9262 17.1211 29.9842 16.7431 30.3042 16.7431C30.1162 17.7351 31.0482 16.7431 31.3182 17.2151C31.0342 16.4711 31.2482 15.4811 31.1302 14.7611H31.1262ZM62.9762 17.1911C63.5662 20.6251 61.4902 23.2111 60.6402 26.2071C60.1682 27.3511 60.3682 28.8151 59.6402 29.8191C59.5922 29.2391 59.9122 28.6991 59.9602 28.0851C60.4922 24.2491 57.1642 21.9731 56.3962 18.7251C56.3562 19.5543 56.4078 20.3853 56.5502 21.2031C56.7382 25.2511 59.3942 28.5431 58.6262 32.7671C59.3942 31.7751 59.9602 30.7471 60.8802 29.7811C63.9362 26.5811 64.7162 21.2611 62.9562 17.1891L62.9762 17.1911ZM0.836174 17.6391C-0.263826 20.1871 -0.203826 23.5511 0.624174 26.2071C1.34417 28.9471 3.95217 30.8571 5.30817 33.2271C5.07217 32.2351 5.12017 30.9731 5.26017 29.9591C6.14617 26.4191 7.55017 22.9991 7.33617 19.0791C6.80417 21.8791 4.28017 23.8931 3.98417 26.7991C3.79617 27.9911 4.09017 29.1591 4.24417 30.2091C3.97217 29.6771 3.71217 29.0651 3.66417 28.3791C3.25017 24.5791 0.170174 21.7711 0.832174 17.6391H0.836174ZM31.0562 18.9731L31.1162 19.0211C31.1762 19.3411 31.4122 19.8211 31.1162 20.0351C30.7362 20.5431 29.8162 20.4351 29.7002 21.1211C28.7082 21.4171 29.0862 22.6411 28.7682 23.4111C28.1282 23.5651 28.3682 22.7971 28.0722 22.5371L27.9182 22.7251C26.9182 21.9811 27.1282 23.5751 26.5182 23.7251C27.1902 23.8791 27.7682 23.4891 28.4542 23.4651C28.5022 23.5451 28.6662 23.5951 28.6082 23.7251H28.7142C28.8682 23.5711 28.8802 23.3851 28.8682 23.1711C28.9282 22.9591 29.1882 22.8311 29.3762 22.9591C29.3162 23.1711 29.4562 23.3391 29.6362 23.4311L29.2702 23.9391C29.0822 24.1511 29.3182 24.7291 28.8222 24.7071C28.7162 24.7311 28.6342 24.6471 28.6682 24.5411H28.5622L28.8222 25.0131C29.1182 24.9891 29.0582 24.4591 29.4362 24.3991C29.7762 24.3191 29.8162 23.9151 29.7762 23.5991C30.2242 23.2191 30.7682 23.4451 31.2622 23.3871C31.3922 23.5171 31.6862 23.5531 31.6282 23.7871C31.8162 24.1671 31.4982 24.5871 31.2622 24.9071C31.3682 25.1191 31.1082 25.2871 31.1082 25.5211C30.7082 25.9451 30.2582 25.7571 29.7082 25.8871C30.3802 26.3591 31.1122 26.6551 31.9982 26.5831C32.8482 26.6431 32.4462 25.5691 33.0582 25.2231C33.4242 25.1751 33.7302 25.2711 34.1442 25.1631C34.3102 24.8431 34.3322 24.4671 34.4042 24.1031C34.0382 23.9371 34.1682 23.5711 34.1442 23.2771C33.9322 23.0171 33.9562 22.5571 33.5302 22.5091C33.4502 22.2731 33.6962 22.1691 33.6842 21.9551C34.3242 21.7191 33.3442 21.3411 33.7442 20.9551C33.0242 20.8251 32.8582 19.6811 31.9642 20.0471C31.7522 19.7511 31.1962 19.6231 31.1962 19.1731C31.2562 18.8531 31.9762 18.9851 31.8922 19.0191C31.8442 18.9591 31.7622 18.9131 31.7862 18.8311C31.5142 18.8071 31.1962 18.8311 31.0182 18.9711L31.0562 18.9731ZM22.0042 21.7131C21.2242 21.9731 22.0042 22.7051 21.9562 23.1991C21.8762 23.5991 21.4722 23.2791 21.2362 23.4591C21.3422 24.1191 20.7882 24.2491 20.3282 24.3671C20.1742 24.8151 20.6682 25.0271 20.4342 25.4531C21.0002 26.0331 21.4482 26.7271 21.3422 27.5291C21.7422 28.1091 21.6382 28.9691 21.7422 29.7131C21.9172 29.8958 22.0526 30.1127 22.14 30.3502C22.2274 30.5876 22.2649 30.8405 22.2502 31.0931C22.2742 31.3651 21.9782 31.4591 21.8022 31.5651C21.5902 31.8251 21.9562 31.6951 21.9562 31.9051L24.8002 28.9551C23.7504 27.7392 23.035 26.2711 22.7242 24.6951L22.3582 24.4831C22.2982 24.8831 22.3102 25.4831 21.9582 25.6031C21.7702 25.4371 21.3922 25.3431 21.3922 24.9891C21.4982 24.7531 21.6882 24.9091 21.8642 24.8831C21.8402 24.6951 21.8882 24.5031 21.9122 24.3291C21.9722 24.0931 21.5722 23.9291 21.8642 23.7151C22.1242 23.6911 22.2302 23.9871 22.4182 24.1151L22.9262 23.8551C22.7722 23.3711 23.0562 22.6051 22.8782 22.0751C22.8082 21.6511 22.3462 21.7351 22.0042 21.7091V21.7131ZM42.5142 23.1971L43.0802 23.8571C43.0562 24.6011 44.0722 24.8571 44.1402 25.5911C44.3522 24.8951 44.3282 24.1051 44.5402 23.4071C43.8902 23.3371 43.0542 23.5471 42.5102 23.1951L42.5142 23.1971ZM50.1022 23.2331L50.2082 23.4451C50.0182 27.7738 48.28 31.8903 45.3102 35.0451C46.1631 35.8233 46.9819 36.638 47.7642 37.4871C50.5642 34.2411 52.5202 30.5951 53.1922 26.4531C53.4282 25.3931 53.3582 24.2471 53.6642 23.2331C52.6242 23.5291 51.3982 23.3391 50.2542 23.3991L50.1022 23.2331ZM45.7362 23.3031C45.8662 23.7271 45.6062 24.1291 45.6302 24.5771C45.1822 25.3211 46.2102 25.5091 45.9262 26.2051C45.7382 26.3591 45.5462 26.3351 45.3122 26.2531C44.7802 28.3291 43.7422 30.2411 42.2562 31.8931H42.1022C42.4822 32.1291 42.7622 32.6611 43.1882 32.7671V32.4711C43.2682 32.4111 43.3182 32.2591 43.4482 32.3171C44.2742 32.5771 44.3342 33.7211 44.4042 34.2531C46.5642 31.9871 47.9082 29.2851 48.5842 26.3591C48.8202 25.3591 48.6902 24.1991 49.0922 23.3491C47.9822 23.4091 46.7802 23.4691 45.7402 23.3011L45.7362 23.3031ZM19.3162 23.3391C19.5522 24.1071 19.8002 24.9331 19.6122 25.7791C19.6122 25.3991 20.4382 25.0111 19.7782 24.6791C20.0382 24.2991 19.8382 23.4871 20.3322 23.4511C19.9422 23.5311 19.6482 23.5311 19.3182 23.3311L19.3162 23.3391ZM10.4062 23.4451C10.6422 28.8491 12.6362 33.5811 16.1522 37.5951C16.9322 36.7691 17.8042 35.8351 18.6522 35.1551C18.2282 34.8831 17.9562 34.3871 17.5322 34.0351C17.0002 33.9291 16.6462 33.4211 16.5182 32.9751C16.5422 33.0351 16.4582 33.0811 16.4122 33.1291C15.9282 33.3651 15.7722 32.7631 15.4562 32.5751C15.1602 32.4211 15.3962 31.7491 14.8762 31.9951C14.5802 31.5111 14.0262 31.5471 13.8162 30.9811L13.5982 31.3271C13.2182 31.3031 12.9382 30.8431 12.7242 30.6071C11.9442 30.8431 12.2522 29.7571 11.8162 29.4031C11.6502 28.7191 11.8642 28.0931 12.2162 27.5631C12.4522 27.3511 12.9002 27.5151 12.9842 27.6691C13.3842 27.8231 13.1382 27.3491 13.3502 27.2691C13.9162 26.7851 14.2002 27.4571 14.5182 27.8231C14.0462 26.4631 13.7502 24.8731 13.8222 23.4091C12.7222 23.5391 11.4982 23.5031 10.4022 23.4331L10.4062 23.4451ZM14.8782 23.4091L14.9842 23.5631C15.0902 25.0831 15.5162 26.5731 15.6442 28.0351C15.8322 27.9051 15.7042 27.5631 15.9642 27.5631C16.0442 26.8431 16.1522 26.0171 16.6242 25.3791C17.2962 25.3551 17.3202 24.4471 18.0402 24.5051C18.2062 24.6351 18.4402 24.8011 18.5122 25.0131C18.1462 24.5891 18.1322 23.9131 18.3002 23.3971C17.1648 23.5485 16.0146 23.5525 14.8782 23.4091ZM24.1062 24.7691L24.2942 25.0891C24.5542 26.1491 25.1802 27.0371 25.7102 27.9891L26.7102 26.9751C26.6862 26.8451 26.7582 26.7031 26.6622 26.6091C26.4742 26.3491 26.6022 25.8891 26.3422 25.7351C26.2622 25.9711 26.5302 26.1011 26.4022 26.2891C26.0822 26.1591 25.7422 26.0171 25.5762 25.6291C25.6362 25.1451 25.2802 25.4991 25.0222 25.2631C25.0102 24.7431 24.3502 25.0831 24.1262 24.7671L24.1062 24.7691ZM27.6702 25.6431C27.6102 25.9391 27.3742 26.1751 27.1982 26.4111C27.4942 26.2811 27.6702 25.8311 27.9982 25.8571L27.6702 25.6431ZM56.9362 26.0431C54.9162 30.3831 56.3822 36.1571 53.9262 40.2991L54.3262 39.9591C59.0942 37.3511 64.8402 32.9591 63.8962 26.5531C63.8162 27.4271 63.5302 28.2051 63.1282 28.9491C61.2642 31.8491 58.0782 34.2231 56.5282 37.2451C56.4802 37.3511 56.3402 37.4111 56.2682 37.3051L56.5882 36.9051C58.8422 33.6591 56.8242 29.6711 56.9542 26.0491L56.9362 26.0431ZM36.7222 26.3971C36.2502 27.0571 37.1702 27.0111 37.2302 27.5651C37.3362 27.5651 37.4662 27.6131 37.5262 27.5171C37.4662 27.2811 37.4782 27.0331 37.2662 26.8571C36.9122 26.8691 36.9122 26.3971 36.7262 26.3971H36.7222ZM6.98217 26.4671C7.24217 27.8711 6.79417 29.0991 6.58217 30.3731C5.86217 32.8131 6.21617 35.6731 7.64217 37.6651C7.17017 37.4291 6.87417 36.8851 6.58217 36.3911C4.82217 33.0151 0.386174 31.1051 0.00817389 27.0571C-0.0158261 28.5211 -0.0158261 30.0671 0.432174 31.3871C1.66017 35.9191 6.66217 38.2551 10.0382 40.5471C7.64217 36.4171 8.91817 30.7871 6.98217 26.4671ZM42.3622 26.6551C41.7482 26.1951 41.8782 27.0791 41.3482 27.0211C41.1602 26.9731 41.1122 26.7491 41.0882 26.5491C41.0402 27.0331 40.6642 27.3991 40.3922 27.7771C39.3922 27.5051 39.6722 28.8771 38.6922 28.5771C38.8222 28.9571 39.2462 28.5171 39.4602 28.6371C39.6262 28.5571 39.5902 28.3771 39.6722 28.2711C39.7782 27.8711 40.2622 27.7171 40.6722 27.8711C40.8842 28.2111 40.9442 28.6391 40.9322 29.0391C40.6962 29.2051 40.6962 29.4871 40.7202 29.7591C40.4242 30.2431 40.5542 31.2791 39.6602 31.1751C38.7282 30.8351 37.7122 30.5851 36.6862 30.5611V30.7731C37.3702 31.0331 38.1262 31.0331 38.6802 31.5411C39.2702 31.4811 40.0142 31.6211 40.4602 31.2811C40.5202 30.8571 40.6962 30.4811 40.9682 30.1611C41.3482 30.2091 41.2642 30.7151 41.4402 30.9611C42.5602 29.5451 43.5402 28.1871 43.9202 26.4411C43.3662 26.4171 42.9642 26.7371 42.3862 26.6531L42.3622 26.6551ZM28.7322 26.6071L26.6922 28.8971C27.8602 29.7831 29.2182 30.4911 30.7282 30.7271C30.7042 30.3271 30.7042 29.9271 30.9162 29.6071C31.1282 29.4771 31.4482 29.6671 31.6362 29.4531C31.6122 29.2651 31.4822 29.2651 31.3762 29.0871C31.2462 28.7911 31.3762 28.5211 31.4242 28.3191C31.5042 28.1651 31.2582 27.8351 31.5302 27.7291C30.8702 28.0491 30.2802 27.5991 29.7002 27.4091C29.3802 27.1611 28.8142 27.1031 28.7322 26.6091V26.6071ZM35.3062 28.8971C35.5662 28.5571 36.1062 28.6251 36.2142 28.2371C35.7422 28.1571 35.2142 28.4971 35.3062 28.8971ZM36.5102 29.4051C36.2742 29.5351 36.0862 29.5351 35.9562 29.8051C35.6842 30.1711 35.3422 29.7811 35.0822 29.6511C35.1622 29.7571 35.3542 30.0171 35.1302 30.1591C34.8582 30.4551 34.5982 30.0291 34.3302 29.9471C34.1762 30.8791 33.8462 29.6871 33.3302 29.8991C33.1182 29.3671 32.7502 30.0051 32.4222 29.9471C32.1622 30.1591 32.1502 30.7731 31.6542 30.7151C31.5482 31.0111 31.1462 30.9031 31.1002 31.1151C31.3362 31.3871 31.6542 31.2691 31.9002 31.2211C32.3002 30.8551 32.8082 31.0911 33.3002 31.0331C33.2522 31.8011 34.1502 31.2211 34.4202 31.6931C34.7402 31.6691 34.7402 31.3531 34.8682 31.1131C35.5282 31.0071 36.2022 30.6051 36.5682 30.0991C36.6622 29.9191 36.7802 29.5091 36.5082 29.4031L36.5102 29.4051ZM25.6762 29.7711C25.0042 30.5971 24.1902 31.3871 23.3862 32.0611H23.5402C25.4042 33.6771 27.7642 34.8011 29.9722 35.1531C29.1722 35.0471 28.8522 34.2571 28.4862 33.6671C28.2742 33.1831 29.0182 33.0771 28.8862 32.5671C29.1582 32.1191 29.5822 31.8711 30.1142 31.7991C29.8542 31.8471 29.6062 31.8791 29.3462 31.9531C28.0002 31.5051 26.6462 30.9131 25.6762 29.7691V29.7711ZM54.8962 32.4611L53.1162 34.7971C50.7202 38.1011 50.9922 42.6211 47.6642 45.4411C49.3842 44.8871 51.2762 44.6511 53.0442 44.2731C57.0562 43.2591 61.2702 39.3051 61.8482 35.1991C61.1282 36.9191 59.6182 38.1851 58.0962 39.1871C55.4642 40.4151 52.7962 41.8191 50.5682 43.7671H50.3082L50.4622 43.5551C54.3102 41.0151 53.2702 36.0951 54.9022 32.4631L54.8962 32.4611ZM41.3022 32.7211V32.7691C39.7082 33.8891 42.0702 33.9371 42.1022 34.9171C41.8662 35.3891 41.0162 35.8491 41.5482 36.4031C41.7142 36.5911 41.4682 36.7431 41.3942 36.9111L43.5782 35.0711C43.3062 35.2591 42.9642 35.1311 42.8102 34.8831C42.8582 33.8831 41.7002 33.4911 41.3002 32.7231L41.3022 32.7211ZM9.02617 32.8271L9.64017 34.3971C10.2302 37.9131 10.5142 41.7971 13.7122 44.0271L13.6642 44.0751C12.6242 43.6271 11.8342 42.7651 10.9042 42.1871C7.89417 40.2391 3.74017 39.3871 2.04417 35.6371C2.51617 38.3771 4.38017 40.8371 6.62417 42.5051C9.31417 44.8771 13.0682 44.6891 16.3602 45.6451C15.1562 44.7131 14.4722 43.6511 13.9202 42.3411C12.7282 39.0011 11.6662 35.5411 9.03417 32.8291L9.02617 32.8271ZM23.6362 33.9231C23.6362 34.2891 24.1202 34.3031 23.9322 34.7491C23.2122 35.1971 22.3382 34.8791 21.6422 35.4091C21.0022 35.7491 20.4742 35.0091 20.1222 35.0431C23.2142 37.7091 26.8482 39.4911 31.0262 39.6931L31.2862 39.8471C31.1202 38.8331 31.1802 37.6411 31.2382 36.5791C28.3942 36.7451 25.8202 35.5651 23.6362 33.9231ZM44.4642 35.8111C43.9829 36.4656 43.3774 37.0188 42.6822 37.4391C40.4762 38.2071 40.2822 40.6591 38.1022 41.4751C37.2522 41.8151 36.7682 40.7071 36.0022 40.5431C34.8582 40.7311 33.6662 41.0511 32.4982 40.8631V44.4271L32.6522 44.3211C38.1282 44.0851 43.0602 41.9251 46.9082 38.3151C46.0342 37.4891 45.1022 36.6391 44.4682 35.8151L44.4642 35.8111ZM19.4242 36.0231L17.0642 38.4631C21.0882 42.0751 25.9042 44.0231 31.3202 44.3631L31.1662 44.1031C31.2142 43.0431 31.0862 41.9191 31.2722 40.9031L31.2242 40.9631C26.7162 40.8331 22.5982 39.1571 19.4242 36.0191V36.0231ZM32.3342 36.7911L32.5462 37.1571L32.4982 39.8471C33.2782 39.5511 34.3622 39.5751 35.0822 39.4471C34.6582 39.0231 34.0222 39.0671 33.8542 38.4331C33.5582 38.0091 33.9842 37.5591 33.9602 37.2051C33.4522 36.9571 32.7022 37.2531 32.3342 36.7911ZM50.3582 39.3271C47.9182 40.9211 45.8142 43.6351 43.5982 45.3671C42.3702 46.2991 40.9082 46.5711 39.4682 46.9951C42.6542 47.2311 45.2982 48.7291 48.6282 48.5151C52.1922 48.3611 55.4602 46.2851 57.1362 43.1231C54.6822 46.0491 50.7282 45.8831 47.1062 46.2151C45.9022 46.3691 44.7102 46.7231 43.4942 46.7231C43.5422 46.6751 43.5742 46.5931 43.6482 46.6171C47.6022 46.2971 48.7222 41.9911 50.3622 39.3251L50.3582 39.3271ZM13.5522 39.5751C15.1802 41.4871 15.2522 44.0151 17.5182 45.5811C18.3922 46.3491 19.5582 46.4891 20.5282 46.8911C19.4422 46.9971 18.4522 46.5511 17.3682 46.4911C13.7222 46.0431 9.54417 46.5151 6.86817 43.5411C8.07217 45.6651 10.2202 47.5071 12.4622 48.2251C16.6982 49.8411 20.5462 47.4571 24.5942 47.1051C19.9102 46.8931 17.3602 41.7591 13.5602 39.5771L13.5522 39.5751ZM44.1042 49.4991C40.4842 47.8471 36.2802 45.9951 32.0322 47.5631C29.8962 46.8671 27.0882 46.8671 24.9522 47.5631C21.2222 49.2631 16.1262 51.8231 12.1842 48.9791C12.9282 49.8651 13.7302 50.2891 14.5802 50.9151C17.1282 52.5671 20.8002 52.4011 23.4202 51.0691C25.8202 50.0551 27.6802 47.0211 30.7602 47.9771C28.1522 49.2871 25.7562 50.8571 23.5962 53.1111L24.9062 54.2311C26.7982 51.7271 29.3982 49.6271 32.1382 48.3991C34.8042 49.6991 37.2482 51.9151 39.2662 54.1451L40.5762 53.0251C38.4522 50.9711 35.9962 49.3051 33.4482 47.9971C34.1082 47.8311 34.9122 47.8671 35.5842 47.9371C38.3442 49.1411 40.4582 51.5571 43.5842 51.9251C46.8882 52.4571 49.8382 51.1251 51.8802 48.7051L50.3102 49.5311C48.4702 50.3451 45.9802 50.1311 44.1022 49.5191L44.1042 49.4991Z" fill="#008FD5"/>
<path d="M26.6591 65.6364C26.6591 66.5767 26.483 67.3821 26.1307 68.0526C25.7813 68.7202 25.304 69.2315 24.6989 69.5866C24.0966 69.9418 23.4134 70.1193 22.6491 70.1193C21.8849 70.1193 21.2003 69.9418 20.5952 69.5866C19.9929 69.2287 19.5156 68.7159 19.1634 68.0483C18.8139 67.3778 18.6392 66.5739 18.6392 65.6364C18.6392 64.696 18.8139 63.892 19.1634 63.2244C19.5156 62.554 19.9929 62.0412 20.5952 61.6861C21.2003 61.331 21.8849 61.1534 22.6491 61.1534C23.4134 61.1534 24.0966 61.331 24.6989 61.6861C25.304 62.0412 25.7813 62.554 26.1307 63.2244C26.483 63.892 26.6591 64.696 26.6591 65.6364ZM25.0696 65.6364C25.0696 64.9744 24.9659 64.4162 24.7585 63.9616C24.554 63.5043 24.2699 63.1591 23.9062 62.9261C23.5426 62.6903 23.1236 62.5724 22.6491 62.5724C22.1747 62.5724 21.7557 62.6903 21.392 62.9261C21.0284 63.1591 20.7429 63.5043 20.5355 63.9616C20.331 64.4162 20.2287 64.9744 20.2287 65.6364C20.2287 66.2983 20.331 66.858 20.5355 67.3153C20.7429 67.7699 21.0284 68.1151 21.392 68.3509C21.7557 68.5838 22.1747 68.7003 22.6491 68.7003C23.1236 68.7003 23.5426 68.5838 23.9062 68.3509C24.2699 68.1151 24.554 67.7699 24.7585 67.3153C24.9659 66.858 25.0696 66.2983 25.0696 65.6364ZM35.3256 61.2727V70H33.9194L29.8072 64.0554H29.7347V70H28.1538V61.2727H29.5685L33.6765 67.2216H33.7532V61.2727H35.3256ZM42.5497 61.2727H44.1307V66.9744C44.1307 67.5994 43.983 68.1491 43.6875 68.6236C43.3949 69.098 42.983 69.4687 42.4517 69.7358C41.9205 70 41.2997 70.1321 40.5895 70.1321C39.8764 70.1321 39.2543 70 38.723 69.7358C38.1918 69.4687 37.7798 69.098 37.4872 68.6236C37.1946 68.1491 37.0483 67.5994 37.0483 66.9744V61.2727H38.6293V66.8423C38.6293 67.206 38.7088 67.5298 38.8679 67.8139C39.0298 68.098 39.2571 68.321 39.5497 68.483C39.8423 68.642 40.1889 68.7216 40.5895 68.7216C40.9901 68.7216 41.3366 68.642 41.6293 68.483C41.9247 68.321 42.152 68.098 42.3111 67.8139C42.4702 67.5298 42.5497 67.206 42.5497 66.8423V61.2727Z" fill="#008FD5"/>
</svg>
